HIERARCHY
ROOT mixamorig:Hips
{
	OFFSET 0.000000 201.639420 0.000000
	CHANNELS 6 Xposition Yposition Zposition Xrotation Yrotation Zrotation
	JOINT mixamorig:Spine
	{
		OFFSET 0.006200 19.524994 -2.481800
		CHANNELS 3 Xrotation Yrotation Zrotation
		JOINT mixamorig:Spine1
		{
			OFFSET -0.000900 22.835007 -2.825400
			CHANNELS 3 Xrotation Yrotation Zrotation
			JOINT mixamorig:Spine2
			{
				OFFSET -0.020600 26.552490 -3.193300
				CHANNELS 3 Xrotation Yrotation Zrotation
				JOINT mixamorig:Neck
				{
					OFFSET -0.060000 30.701813 1.352200
					CHANNELS 3 Xrotation Yrotation Zrotation
					JOINT mixamorig:Head
					{
						OFFSET -0.087200 22.547607 3.670900
						CHANNELS 3 Xrotation Yrotation Zrotation
						JOINT mixamorig:HeadTop_End
						{
							OFFSET -0.830600 40.355194 7.893500
							CHANNELS 3 Xrotation Yrotation Zrotation
							End Site
							{
								OFFSET 0.000000 30.592346 0.000000
							}
						}
						JOINT mixamorig:RightEye
						{
							OFFSET -6.302100 18.118591 16.197100
							CHANNELS 3 Xrotation Yrotation Zrotation
							End Site
							{
								OFFSET 0.000000 30.592346 0.000000
							}
						}
						JOINT mixamorig:LeftEye
						{
							OFFSET 6.741500 18.382690 16.401899
							CHANNELS 3 Xrotation Yrotation Zrotation
							End Site
							{
								OFFSET 0.000000 30.592346 0.000000
							}
						}
					}
				}
				JOINT mixamorig:LeftShoulder
				{
					OFFSET 11.924900 18.230499 1.425400
					CHANNELS 3 Xrotation Yrotation Zrotation
					JOINT mixamorig:LeftArm
					{
						OFFSET 25.435989 -0.697632 -5.229300
						CHANNELS 3 Xrotation Yrotation Zrotation
						JOINT mixamorig:LeftForeArm
						{
							OFFSET 54.684776 0.000000 0.000000
							CHANNELS 3 Xrotation Yrotation Zrotation
							JOINT mixamorig:LeftHand
							{
								OFFSET 55.098175 0.000000 0.000000
								CHANNELS 3 Xrotation Yrotation Zrotation
								JOINT mixamorig:LeftHandMiddle1
								{
									OFFSET 23.369751 0.000000 0.000000
									CHANNELS 3 Xrotation Yrotation Zrotation
									JOINT mixamorig:LeftHandMiddle2
									{
										OFFSET 6.378677 0.000000 0.000000
										CHANNELS 3 Xrotation Yrotation Zrotation
										JOINT mixamorig:LeftHandMiddle3
										{
											OFFSET 6.148331 0.000000 0.000000
											CHANNELS 3 Xrotation Yrotation Zrotation
											JOINT mixamorig:LeftHandMiddle4
											{
												OFFSET 6.582504 0.000000 0.000000
												CHANNELS 3 Xrotation Yrotation Zrotation
												End Site
												{
													OFFSET -1.168900 6.395691 1.028606
												}
											}
										}
									}
								}
								JOINT mixamorig:LeftHandThumb1
								{
									OFFSET 7.235672 -3.848206 5.434273
									CHANNELS 3 Xrotation Yrotation Zrotation
									JOINT mixamorig:LeftHandThumb2
									{
										OFFSET 6.568451 -3.792297 3.792300
										CHANNELS 3 Xrotation Yrotation Zrotation
										JOINT mixamorig:LeftHandThumb3
										{
											OFFSET 6.063080 -3.500519 3.500518
											CHANNELS 3 Xrotation Yrotation Zrotation
											JOINT mixamorig:LeftHandThumb4
											{
												OFFSET 4.793182 -2.767334 2.767349
												CHANNELS 3 Xrotation Yrotation Zrotation
												End Site
												{
													OFFSET 0.101639 6.054260 1.275483
												}
											}
										}
									}
								}
								JOINT mixamorig:LeftHandIndex1
								{
									OFFSET 23.101074 -0.309540 4.992809
									CHANNELS 3 Xrotation Yrotation Zrotation
									JOINT mixamorig:LeftHandIndex2
									{
										OFFSET 6.226883 0.000000 0.000000
										CHANNELS 3 Xrotation Yrotation Zrotation
										JOINT mixamorig:LeftHandIndex3
										{
											OFFSET 6.094330 0.000000 0.000000
											CHANNELS 3 Xrotation Yrotation Zrotation
											JOINT mixamorig:LeftHandIndex4
											{
												OFFSET 5.482605 0.000000 0.000000
												CHANNELS 3 Xrotation Yrotation Zrotation
												End Site
												{
													OFFSET -1.427902 5.233032 0.797164
												}
											}
										}
									}
								}
								JOINT mixamorig:LeftHandRing1
								{
									OFFSET 22.299240 0.021149 -3.964172
									CHANNELS 3 Xrotation Yrotation Zrotation
									JOINT mixamorig:LeftHandRing2
									{
										OFFSET 6.321869 0.000000 0.000000
										CHANNELS 3 Xrotation Yrotation Zrotation
										JOINT mixamorig:LeftHandRing3
										{
											OFFSET 5.899796 0.000000 0.000000
											CHANNELS 3 Xrotation Yrotation Zrotation
											JOINT mixamorig:LeftHandRing4
											{
												OFFSET 6.517899 0.000000 0.000000
												CHANNELS 3 Xrotation Yrotation Zrotation
												End Site
												{
													OFFSET -1.637299 6.232208 0.980890
												}
											}
										}
									}
								}
								JOINT mixamorig:LeftHandPinky1
								{
									OFFSET 20.463791 -0.302338 -8.562233
									CHANNELS 3 Xrotation Yrotation Zrotation
									JOINT mixamorig:LeftHandPinky2
									{
										OFFSET 6.908646 0.000000 0.000000
										CHANNELS 3 Xrotation Yrotation Zrotation
										JOINT mixamorig:LeftHandPinky3
										{
											OFFSET 4.622849 0.000000 0.000000
											CHANNELS 3 Xrotation Yrotation Zrotation
											JOINT mixamorig:LeftHandPinky4
											{
												OFFSET 5.216080 0.000000 0.000000
												CHANNELS 3 Xrotation Yrotation Zrotation
												End Site
												{
													OFFSET -0.606308 5.116241 0.814926
												}
											}
										}
									}
								}
							}
						}
					}
				}
				JOINT mixamorig:RightShoulder
				{
					OFFSET -12.001300 18.284088 1.348900
					CHANNELS 3 Xrotation Yrotation Zrotation
					JOINT mixamorig:RightArm
					{
						OFFSET -25.308500 -0.751312 -5.164599
						CHANNELS 3 Xrotation Yrotation Zrotation
						JOINT mixamorig:RightForeArm
						{
							OFFSET -54.684429 0.000000 0.000000
							CHANNELS 3 Xrotation Yrotation Zrotation
							JOINT mixamorig:RightHand
							{
								OFFSET -55.150291 0.000000 0.000000
								CHANNELS 3 Xrotation Yrotation Zrotation
								JOINT mixamorig:RightHandMiddle1
								{
									OFFSET -23.317566 0.000000 0.000000
									CHANNELS 3 Xrotation Yrotation Zrotation
									JOINT mixamorig:RightHandMiddle2
									{
										OFFSET -6.378403 0.000000 0.000000
										CHANNELS 3 Xrotation Yrotation Zrotation
										JOINT mixamorig:RightHandMiddle3
										{
											OFFSET -6.148193 0.000000 0.000000
											CHANNELS 3 Xrotation Yrotation Zrotation
											JOINT mixamorig:RightHandMiddle4
											{
												OFFSET -6.583389 0.000000 0.000000
												CHANNELS 3 Xrotation Yrotation Zrotation
												End Site
												{
													OFFSET 1.171692 6.395905 1.029786
												}
											}
										}
									}
								}
								JOINT mixamorig:RightHandThumb1
								{
									OFFSET -7.190521 -3.860474 5.435846
									CHANNELS 3 Xrotation Yrotation Zrotation
									JOINT mixamorig:RightHandThumb2
									{
										OFFSET -6.567429 -3.791718 3.791708
										CHANNELS 3 Xrotation Yrotation Zrotation
										JOINT mixamorig:RightHandThumb3
										{
											OFFSET -6.062469 -3.500153 3.500166
											CHANNELS 3 Xrotation Yrotation Zrotation
											JOINT mixamorig:RightHandThumb4
											{
												OFFSET -4.792618 -2.767029 2.767022
												CHANNELS 3 Xrotation Yrotation Zrotation
												End Site
												{
													OFFSET -0.100327 6.053253 1.276754
												}
											}
										}
									}
								}
								JOINT mixamorig:RightHandIndex1
								{
									OFFSET -23.048981 -0.310791 4.992554
									CHANNELS 3 Xrotation Yrotation Zrotation
									JOINT mixamorig:RightHandIndex2
									{
										OFFSET -6.227539 0.000000 0.000000
										CHANNELS 3 Xrotation Yrotation Zrotation
										JOINT mixamorig:RightHandIndex3
										{
											OFFSET -6.095047 0.000000 0.000000
											CHANNELS 3 Xrotation Yrotation Zrotation
											JOINT mixamorig:RightHandIndex4
											{
												OFFSET -5.484772 0.000000 0.000000
												CHANNELS 3 Xrotation Yrotation Zrotation
												End Site
												{
													OFFSET 1.420593 5.237305 0.797056
												}
											}
										}
									}
								}
								JOINT mixamorig:RightHandRing1
								{
									OFFSET -22.246323 0.020569 -3.963762
									CHANNELS 3 Xrotation Yrotation Zrotation
									JOINT mixamorig:RightHandRing2
									{
										OFFSET -6.322128 0.000000 0.000000
										CHANNELS 3 Xrotation Yrotation Zrotation
										JOINT mixamorig:RightHandRing3
										{
											OFFSET -5.900024 0.000000 0.000000
											CHANNELS 3 Xrotation Yrotation Zrotation
											JOINT mixamorig:RightHandRing4
											{
												OFFSET -6.518356 0.000000 0.000000
												CHANNELS 3 Xrotation Yrotation Zrotation
												End Site
												{
													OFFSET 1.636398 6.232697 0.982186
												}
											}
										}
									}
								}
								JOINT mixamorig:RightHandPinky1
								{
									OFFSET -20.411011 -0.303314 -8.561701
									CHANNELS 3 Xrotation Yrotation Zrotation
									JOINT mixamorig:RightHandPinky2
									{
										OFFSET -6.907349 0.000000 0.000000
										CHANNELS 3 Xrotation Yrotation Zrotation
										JOINT mixamorig:RightHandPinky3
										{
											OFFSET -4.623840 0.000000 0.000000
											CHANNELS 3 Xrotation Yrotation Zrotation
											JOINT mixamorig:RightHandPinky4
											{
												OFFSET -5.218353 0.000000 0.000000
												CHANNELS 3 Xrotation Yrotation Zrotation
												End Site
												{
													OFFSET 0.602097 5.118835 0.816273
												}
											}
										}
									}
								}
							}
						}
					}
				}
			}
		}
	}
	JOINT mixamorig:LeftUpLeg
	{
		OFFSET 18.168400 -13.561905 -0.039000
		CHANNELS 3 Xrotation Yrotation Zrotation
		JOINT mixamorig:LeftLeg
		{
			OFFSET 0.577358 -80.825211 -3.695000
			CHANNELS 3 Xrotation Yrotation Zrotation
			JOINT mixamorig:LeftFoot
			{
				OFFSET -0.577356 -83.370262 -6.520700
				CHANNELS 3 Xrotation Yrotation Zrotation
				JOINT mixamorig:LeftToeBase
				{
					OFFSET 0.750401 -20.798306 25.135401
					CHANNELS 3 Xrotation Yrotation Zrotation
					JOINT mixamorig:LeftToe_End
					{
						OFFSET -0.000500 0.001200 19.917799
						CHANNELS 3 Xrotation Yrotation Zrotation
						End Site
						{
							OFFSET 0.000000 19.917805 0.000000
						}
					}
				}
			}
		}
	}
	JOINT mixamorig:RightUpLeg
	{
		OFFSET -18.162500 -13.585098 -0.041000
		CHANNELS 3 Xrotation Yrotation Zrotation
		JOINT mixamorig:RightLeg
		{
			OFFSET -0.595024 -80.945297 -3.631900
			CHANNELS 3 Xrotation Yrotation Zrotation
			JOINT mixamorig:RightFoot
			{
				OFFSET 0.595024 -83.218193 -6.561200
				CHANNELS 3 Xrotation Yrotation Zrotation
				JOINT mixamorig:RightToeBase
				{
					OFFSET -0.753601 -20.807106 25.115000
					CHANNELS 3 Xrotation Yrotation Zrotation
					JOINT mixamorig:RightToe_End
					{
						OFFSET 0.000299 0.001700 19.918200
						CHANNELS 3 Xrotation Yrotation Zrotation
						End Site
						{
							OFFSET 0.000000 19.918203 0.000000
						}
					}
				}
			}
		}
	}
}
MOTION
Frames: 4
Frame Time: 0.033333
145.119507 13.869476 69.389938 -94.738815 1.628260 86.779418 5.872864 -0.835066 -1.161430 -0.875006 -0.001577 0.639367 -0.856698 -0.000887 0.647349 -6.574584 -0.269503 -1.085771 -3.818079 -4.582385 11.662597 0.000000 -0.000000 -0.000000 0.000000 -0.000000 -0.000000 0.000000 -0.000000 -0.000000 0.484337 -3.030410 3.452385 23.674580 -44.977977 -60.203678 -0.000012 -21.060830 0.000002 0.572216 8.608602 -4.171816 0.463300 5.195521 -9.580164 0.202585 1.528799 -15.096067 0.646103 2.676402 -27.139758 0.000001 -0.000001 0.000003 12.792916 1.467401 -0.270550 9.896709 22.724526 2.955710 -5.896190 9.560132 15.641589 0.000001 0.000002 0.000001 2.088130 8.773201 -20.494379 0.248929 1.691159 -16.745022 0.248905 1.691163 -16.745030 0.000003 -0.000002 0.000002 0.338559 9.812729 -1.774358 0.453366 2.261622 -22.667779 0.182119 1.450830 -14.308994 -0.000004 0.000001 -0.000002 -1.156773 9.927322 9.130946 0.838391 3.021824 -31.006723 0.985720 3.254049 -33.697449 0.000000 -0.000001 -0.000001 0.535692 4.111467 19.840972 26.606568 12.980827 46.600489 0.000002 20.299507 -0.000001 5.245248 2.087116 7.093729 0.241627 -3.611000 16.553317 0.314563 -1.684175 21.157775 0.528954 -2.157551 27.546798 0.000005 -0.000006 0.000005 24.144032 5.082714 3.330752 4.612919 -15.130563 -7.014463 -4.178286 -16.709960 -17.039310 0.000002 -0.000002 -0.000000 1.114398 -5.583587 25.174095 0.213403 -1.395008 17.393985 0.042998 -0.632057 7.783098 -0.000002 0.000002 -0.000002 0.048425 -2.340837 0.721534 1.001833 -2.887749 38.259455 0.656381 -2.385815 30.761044 -0.000001 -0.000003 -0.000000 0.066847 -1.863684 -5.142137 1.080952 -2.985196 39.803641 0.104983 -0.984347 12.176101 0.000000 -0.000001 0.000001 -11.618275 11.287449 10.327973 2.377633 7.602187 5.134379 12.959595 18.194697 -15.941733 10.849071 0.000001 -0.000004 -0.000000 0.000002 0.000000 -10.865969 -14.715656 -13.207675 4.002814 -9.132524 -5.214555 18.403810 -26.007088 22.961172 -4.110158 -0.000000 -0.000003 0.000000 -0.000000 -0.000000 
145.115707 13.867722 69.389534 -94.712860 1.605335 86.792382 5.938299 -0.806949 -1.168658 -0.920329 0.004026 0.632213 -0.902202 0.003571 0.641388 -6.546340 -0.277392 -1.080027 -3.774871 -4.613275 11.656145 0.000000 0.000000 0.000000 0.000000 0.000000 0.000000 0.000000 0.000000 0.000000 0.484632 -3.039373 3.552158 23.543269 -45.058300 -60.390723 0.000004 -20.909053 -0.000002 0.553717 8.532382 -4.182394 0.463294 5.195523 -9.580163 0.202590 1.528798 -15.096067 0.646109 2.676403 -27.139758 -0.000004 0.000001 0.000003 12.792914 1.467399 -0.270552 9.896710 22.724528 2.955711 -5.896189 9.560136 15.641589 -0.000001 0.000003 0.000001 2.088123 8.773201 -20.494375 0.248922 1.691159 -16.745018 0.248905 1.691164 -16.745033 0.000000 0.000002 -0.000005 0.338556 9.812730 -1.774357 0.453365 2.261627 -22.667779 0.182117 1.450829 -14.308994 0.000001 -0.000002 0.000001 -1.156776 9.927324 9.130947 0.838388 3.021822 -31.006723 0.985721 3.254047 -33.697449 0.000001 0.000001 0.000002 0.535860 4.110887 19.855174 26.629125 12.917416 46.626887 0.000003 20.307305 -0.000003 5.270897 2.105556 7.115172 0.241620 -3.610998 16.553317 0.314560 -1.684175 21.157776 0.528949 -2.157550 27.546800 0.000002 -0.000000 -0.000003 24.144029 5.082716 3.330753 4.612920 -15.130565 -7.014464 -4.178285 -16.709962 -17.039314 0.000003 -0.000001 0.000000 1.114394 -5.583584 25.174093 0.213400 -1.395005 17.393983 0.043001 -0.632058 7.783094 -0.000004 0.000000 0.000001 0.048421 -2.340838 0.721536 1.001830 -2.887751 38.259451 0.656386 -2.385817 30.761044 -0.000001 0.000005 0.000000 0.066843 -1.863683 -5.142142 1.080961 -2.985196 39.803641 0.104982 -0.984344 12.176106 0.000002 0.000004 -0.000003 -11.558123 11.302711 10.314695 2.325098 7.609393 5.128470 12.987689 18.210584 -15.961655 10.837090 -0.000001 0.000014 -0.000001 0.000002 0.000000 -10.865472 -14.717451 -13.225995 4.010835 -9.123698 -5.211407 18.379499 -25.947728 22.910316 -4.104636 -0.000007 0.000006 -0.000000 -0.000000 -0.000000 
145.119675 13.868942 69.388695 -94.703517 1.604464 86.791986 5.964584 -0.775016 -1.184730 -0.958145 0.010501 0.634286 -0.943126 0.007428 0.643964 -6.521458 -0.281080 -1.082708 -3.739880 -4.646339 11.657298 -0.000000 0.000000 -0.000000 -0.000000 0.000000 -0.000000 -0.000000 0.000000 -0.000000 0.485127 -3.048632 3.636439 23.484700 -45.098988 -60.514404 -0.000001 -20.885822 0.000004 0.554616 8.533250 -4.203715 0.463300 5.195520 -9.580166 0.202592 1.528799 -15.096069 0.646105 2.676402 -27.139758 -0.000002 0.000000 0.000002 12.792914 1.467398 -0.270552 9.896706 22.724528 2.955711 -5.896186 9.560136 15.641589 0.000000 -0.000001 -0.000001 2.088128 8.773200 -20.494377 0.248923 1.691158 -16.745023 0.248907 1.691164 -16.745027 0.000003 0.000001 0.000001 0.338557 9.812729 -1.774357 0.453364 2.261622 -22.667779 0.182112 1.450833 -14.308993 -0.000002 -0.000001 0.000001 -1.156772 9.927324 9.130945 0.838389 3.021821 -31.006719 0.985720 3.254049 -33.697452 -0.000001 -0.000001 -0.000000 0.536353 4.110313 19.876856 26.668704 12.844020 46.650493 0.000017 20.306270 -0.000002 5.303787 2.121532 7.140626 0.241623 -3.610998 16.553319 0.314565 -1.684175 21.157775 0.528964 -2.157551 27.546800 0.000001 -0.000003 0.000000 24.144032 5.082715 3.330752 4.612924 -15.130561 -7.014463 -4.178286 -16.709962 -17.039316 0.000001 -0.000006 -0.000001 1.114394 -5.583586 25.174100 0.213400 -1.395006 17.393982 0.043004 -0.632056 7.783085 -0.000003 -0.000003 0.000005 0.048423 -2.340837 0.721536 1.001831 -2.887750 38.259451 0.656386 -2.385814 30.761044 -0.000001 0.000003 -0.000002 0.066844 -1.863683 -5.142140 1.080959 -2.985198 39.803645 0.104985 -0.984346 12.176103 -0.000003 -0.000001 -0.000000 -11.563677 11.297143 10.316337 2.342954 7.609393 5.129884 12.991394 18.219513 -15.975290 10.781408 0.000017 0.000008 0.000001 0.000003 0.000000 -10.881256 -14.727483 -13.242121 4.029115 -9.123434 -5.185787 18.384117 -25.940705 22.884214 -4.098198 0.000002 -0.000018 -0.000000 0.000001 -0.000000 
145.122910 13.873749 69.388885 -94.670356 1.582584 86.814607 6.024266 -0.742291 -1.230481 -0.995672 0.014664 0.651510 -0.979928 0.011802 0.653515 -6.502453 -0.281063 -1.094254 -3.704650 -4.679621 11.667037 0.000001 -0.000000 0.000000 0.000001 -0.000000 0.000000 0.000001 -0.000000 0.000000 0.486383 -3.062660 3.720340 23.356884 -45.166777 -60.701749 -0.000001 -20.760514 -0.000000 0.536823 8.468950 -4.196638 0.463298 5.195523 -9.580164 0.202589 1.528798 -15.096067 0.646106 2.676402 -27.139758 0.000002 0.000000 0.000002 12.792918 1.467401 -0.270552 9.896708 22.724529 2.955711 -5.896188 9.560141 15.641591 0.000001 -0.000002 -0.000001 2.088129 8.773202 -20.494377 0.248925 1.691156 -16.745022 0.248911 1.691162 -16.745025 -0.000002 0.000001 0.000001 0.338558 9.812730 -1.774358 0.453363 2.261620 -22.667781 0.182117 1.450834 -14.308999 0.000001 -0.000001 0.000002 -1.156772 9.927323 9.130946 0.838389 3.021822 -31.006726 0.985722 3.254048 -33.697452 -0.000003 0.000002 0.000001 0.542980 4.108338 19.811831 26.650539 12.817831 46.740361 -0.000023 20.265122 0.000002 5.331922 2.160778 7.159033 0.241623 -3.610999 16.553315 0.314559 -1.684175 21.157776 0.528959 -2.157549 27.546800 0.000004 -0.000003 0.000002 24.144032 5.082714 3.330753 4.612920 -15.130566 -7.014466 -4.178286 -16.709962 -17.039310 0.000002 0.000002 0.000001 1.114399 -5.583588 25.174097 0.213397 -1.395006 17.393987 0.042998 -0.632057 7.783096 0.000001 0.000002 -0.000003 0.048425 -2.340838 0.721537 1.001834 -2.887750 38.259455 0.656379 -2.385813 30.761048 -0.000001 -0.000001 0.000003 0.066847 -1.863684 -5.142142 1.080960 -2.985196 39.803641 0.104984 -0.984345 12.176101 -0.000002 0.000002 -0.000001 -11.496107 11.313087 10.294054 2.282018 7.604371 5.132511 13.026305 18.259432 -16.005385 10.790797 -0.000010 0.000011 -0.000000 -0.000002 0.000001 -10.893024 -14.735232 -13.276085 4.057040 -9.131678 -5.182956 18.388357 -25.928353 22.901909 -4.069371 0.000002 -0.000001 0.000000 0.000006 0.000000 
